<svg xmlns="http://www.w3.org/2000/svg" width="1200" height="1010" viewBox="0 0 1200 1010" role="img" aria-labelledby="title desc"><title id="title">Recite — three logo auditions</title><desc id="desc">Three original vector concepts shown in plum on paper, paper on ink app tiles, and at small sizes.</desc><rect width="1200" height="1010" fill="#faf6ef"/><g font-family="DejaVu Sans, sans-serif" fill="#302431"><text x="48" y="62" font-size="15" letter-spacing="3">RECITE / IDENTITY AUDITIONS</text><text x="48" y="114" font-family="DejaVu Serif, serif" font-size="38">Ink, plum &amp; paper.</text><text x="48" y="149" font-size="15" fill="#534551">One family for the language, the tools, and Writer. Shape first; colour shared with the GUI.</text><rect x="48" y="190" width="352" height="738" rx="16" fill="#efe9e1"/><text x="72" y="229" font-size="12" letter-spacing="2">01 / BRANCHING QUOTATION</text><g transform="translate(116 259) scale(0.84375)" color="#683e62" fill="currentColor"><path d="M46 48h64v64H78c0 20-10 36-30 48v-25c10-7 14-14 14-23H46z"/><path d="M146 48h64v64h-32c0 20-10 36-30 48v-25c10-7 14-14 14-23h-16z"/><path d="M128 212v-29c0-22-26-19-48-39M128 183c0-22 26-19 48-39" fill="none" stroke="currentColor" stroke-width="16" stroke-linecap="round"/></g><text x="224" y="507" text-anchor="middle" font-family="DejaVu Serif, serif" font-size="37">recite</text><text x="224" y="541" text-anchor="middle" font-size="13" fill="#534551">Speech becomes a choice.</text><rect x="148" y="575" width="152" height="152" rx="33" fill="#241f27"/><g transform="translate(160 587) scale(0.5)" color="#f3e9df" fill="currentColor"><path d="M46 48h64v64H78c0 20-10 36-30 48v-25c10-7 14-14 14-23H46z"/><path d="M146 48h64v64h-32c0 20-10 36-30 48v-25c10-7 14-14 14-23h-16z"/><path d="M128 212v-29c0-22-26-19-48-39M128 183c0-22 26-19 48-39" fill="none" stroke="currentColor" stroke-width="16" stroke-linecap="round"/></g><text x="224" y="758" text-anchor="middle" font-size="12" fill="#534551">WRITER / APP TILE</text><g transform="translate(96 806) scale(0.0625)" color="#302431" fill="currentColor"><path d="M46 48h64v64H78c0 20-10 36-30 48v-25c10-7 14-14 14-23H46z"/><path d="M146 48h64v64h-32c0 20-10 36-30 48v-25c10-7 14-14 14-23h-16z"/><path d="M128 212v-29c0-22-26-19-48-39M128 183c0-22 26-19 48-39" fill="none" stroke="currentColor" stroke-width="16" stroke-linecap="round"/></g><g transform="translate(146 802) scale(0.09375)" color="#302431" fill="currentColor"><path d="M46 48h64v64H78c0 20-10 36-30 48v-25c10-7 14-14 14-23H46z"/><path d="M146 48h64v64h-32c0 20-10 36-30 48v-25c10-7 14-14 14-23h-16z"/><path d="M128 212v-29c0-22-26-19-48-39M128 183c0-22 26-19 48-39" fill="none" stroke="currentColor" stroke-width="16" stroke-linecap="round"/></g><g transform="translate(204 798) scale(0.125)" color="#302431" fill="currentColor"><path d="M46 48h64v64H78c0 20-10 36-30 48v-25c10-7 14-14 14-23H46z"/><path d="M146 48h64v64h-32c0 20-10 36-30 48v-25c10-7 14-14 14-23h-16z"/><path d="M128 212v-29c0-22-26-19-48-39M128 183c0-22 26-19 48-39" fill="none" stroke="currentColor" stroke-width="16" stroke-linecap="round"/></g><g transform="translate(278 790) scale(0.1875)" color="#302431" fill="currentColor"><path d="M46 48h64v64H78c0 20-10 36-30 48v-25c10-7 14-14 14-23H46z"/><path d="M146 48h64v64h-32c0 20-10 36-30 48v-25c10-7 14-14 14-23h-16z"/><path d="M128 212v-29c0-22-26-19-48-39M128 183c0-22 26-19 48-39" fill="none" stroke="currentColor" stroke-width="16" stroke-linecap="round"/></g><text x="72" y="889" font-size="12" fill="#534551">16 / 24 / 32 / 48 px · one-colour marks</text><rect x="424" y="190" width="352" height="738" rx="16" fill="#efe9e1"/><text x="448" y="229" font-size="12" letter-spacing="2">02 / IN CONVERSATION</text><g transform="translate(492 259) scale(0.84375)" color="#683e62" fill="currentColor"><path d="M38 62h61c20 0 33 14 33 33v14l17 19-17 10v19h-29l-27 37v-37H38z"/><path d="M218 62h-36c-20 0-33 14-33 33v10l22 23-22 14v15h31l27 37v-37h11z"/></g><text x="600" y="507" text-anchor="middle" font-family="DejaVu Serif, serif" font-size="37">recite</text><text x="600" y="541" text-anchor="middle" font-size="13" fill="#534551">Two voices, facing one another.</text><rect x="524" y="575" width="152" height="152" rx="33" fill="#241f27"/><g transform="translate(536 587) scale(0.5)" color="#f3e9df" fill="currentColor"><path d="M38 62h61c20 0 33 14 33 33v14l17 19-17 10v19h-29l-27 37v-37H38z"/><path d="M218 62h-36c-20 0-33 14-33 33v10l22 23-22 14v15h31l27 37v-37h11z"/></g><text x="600" y="758" text-anchor="middle" font-size="12" fill="#534551">WRITER / APP TILE</text><g transform="translate(472 806) scale(0.0625)" color="#302431" fill="currentColor"><path d="M38 62h61c20 0 33 14 33 33v14l17 19-17 10v19h-29l-27 37v-37H38z"/><path d="M218 62h-36c-20 0-33 14-33 33v10l22 23-22 14v15h31l27 37v-37h11z"/></g><g transform="translate(522 802) scale(0.09375)" color="#302431" fill="currentColor"><path d="M38 62h61c20 0 33 14 33 33v14l17 19-17 10v19h-29l-27 37v-37H38z"/><path d="M218 62h-36c-20 0-33 14-33 33v10l22 23-22 14v15h31l27 37v-37h11z"/></g><g transform="translate(580 798) scale(0.125)" color="#302431" fill="currentColor"><path d="M38 62h61c20 0 33 14 33 33v14l17 19-17 10v19h-29l-27 37v-37H38z"/><path d="M218 62h-36c-20 0-33 14-33 33v10l22 23-22 14v15h31l27 37v-37h11z"/></g><g transform="translate(654 790) scale(0.1875)" color="#302431" fill="currentColor"><path d="M38 62h61c20 0 33 14 33 33v14l17 19-17 10v19h-29l-27 37v-37H38z"/><path d="M218 62h-36c-20 0-33 14-33 33v10l22 23-22 14v15h31l27 37v-37h11z"/></g><text x="448" y="889" font-size="12" fill="#534551">16 / 24 / 32 / 48 px · one-colour marks</text><rect x="800" y="190" width="352" height="738" rx="16" fill="#efe9e1"/><text x="824" y="229" font-size="12" letter-spacing="2">03 / RECITATION R</text><g transform="translate(868 259) scale(0.84375)" color="#683e62" fill="currentColor"><path d="M51 58h63v23c15-20 34-28 55-28h29v53h-32c-32 0-52 19-52 50v31h28v21H51v-21h18V80H51z"/><path d="M157 127h41v34c0 27-16 46-43 52v-22c14-5 20-13 20-23h-18z"/></g><text x="976" y="507" text-anchor="middle" font-family="DejaVu Serif, serif" font-size="37">recite</text><text x="976" y="541" text-anchor="middle" font-size="13" fill="#534551">A letterform with a speaking cadence.</text><rect x="900" y="575" width="152" height="152" rx="33" fill="#241f27"/><g transform="translate(912 587) scale(0.5)" color="#f3e9df" fill="currentColor"><path d="M51 58h63v23c15-20 34-28 55-28h29v53h-32c-32 0-52 19-52 50v31h28v21H51v-21h18V80H51z"/><path d="M157 127h41v34c0 27-16 46-43 52v-22c14-5 20-13 20-23h-18z"/></g><text x="976" y="758" text-anchor="middle" font-size="12" fill="#534551">WRITER / APP TILE</text><g transform="translate(848 806) scale(0.0625)" color="#302431" fill="currentColor"><path d="M51 58h63v23c15-20 34-28 55-28h29v53h-32c-32 0-52 19-52 50v31h28v21H51v-21h18V80H51z"/><path d="M157 127h41v34c0 27-16 46-43 52v-22c14-5 20-13 20-23h-18z"/></g><g transform="translate(898 802) scale(0.09375)" color="#302431" fill="currentColor"><path d="M51 58h63v23c15-20 34-28 55-28h29v53h-32c-32 0-52 19-52 50v31h28v21H51v-21h18V80H51z"/><path d="M157 127h41v34c0 27-16 46-43 52v-22c14-5 20-13 20-23h-18z"/></g><g transform="translate(956 798) scale(0.125)" color="#302431" fill="currentColor"><path d="M51 58h63v23c15-20 34-28 55-28h29v53h-32c-32 0-52 19-52 50v31h28v21H51v-21h18V80H51z"/><path d="M157 127h41v34c0 27-16 46-43 52v-22c14-5 20-13 20-23h-18z"/></g><g transform="translate(1030 790) scale(0.1875)" color="#302431" fill="currentColor"><path d="M51 58h63v23c15-20 34-28 55-28h29v53h-32c-32 0-52 19-52 50v31h28v21H51v-21h18V80H51z"/><path d="M157 127h41v34c0 27-16 46-43 52v-22c14-5 20-13 20-23h-18z"/></g><text x="824" y="889" font-size="12" fill="#534551">16 / 24 / 32 / 48 px · one-colour marks</text><text x="48" y="973" font-size="13" fill="#534551">Exploratory SVG artwork · provisional wordmark · no installed icons replaced</text></g></svg>